<?xml version="1.0" encoding="utf-8"?>
<!-- Generator: Adobe Illustrator 16.0.0, SVG Export Plug-In . SVG Version: 6.00 Build 0)  -->
<!DOCTYPE svg PUBLIC "-//W3C//DTD SVG 1.1//EN" "http://www.w3.org/Graphics/SVG/1.1/DTD/svg11.dtd">
<svg version="1.1" id="Layer_1" xmlns="http://www.w3.org/2000/svg" xmlns:xlink="http://www.w3.org/1999/xlink" x="0px" y="0px"
	 width="109.481px" height="109.48px" viewBox="0 0 109.481 109.48" enable-background="new 0 0 109.481 109.48"
	 xml:space="preserve">
<g>
	<g>
		<path fill="#1F9FC1" d="M71.764,55.751c1.76,0,2.395-0.715,2.395-2.023v-1.645c0-1.271-0.635-1.982-2.395-1.982
			c-1.682,0-2.32,0.711-2.32,1.982v1.645C69.443,55.036,70.082,55.751,71.764,55.751L71.764,55.751z M72.252,60.351h1.533
			l4.637-10.064h-1.531L72.252,60.351z M72.551,53.503c0,0.449-0.225,0.713-0.787,0.713c-0.486,0-0.711-0.264-0.711-0.713v-1.121
			c0-0.486,0.225-0.748,0.711-0.748c0.563,0,0.787,0.262,0.787,0.748V53.503z M78.873,60.612c1.721,0,2.393-0.748,2.393-2.057
			v-1.646c0-1.271-0.672-1.982-2.393-1.982c-1.684,0-2.357,0.711-2.357,1.982v1.646C76.516,59.864,77.189,60.612,78.873,60.612
			L78.873,60.612z M79.656,58.329c0,0.449-0.225,0.711-0.783,0.711c-0.525,0-0.748-0.262-0.748-0.711v-1.121
			c0-0.521,0.223-0.75,0.748-0.75c0.559,0,0.783,0.229,0.783,0.75V58.329z"/>
		<path fill="#1F9FC1" d="M37.617,63.94v-3.291h-2.545V46.431h-3.629l-3.928,2.992l2.168,2.508l1.76-1.309v10.027h-2.469v3.291
			H37.617z M45.846,64.276c4.489,0,6.136-1.906,6.136-5.311v-7.559c0-3.367-1.646-5.313-6.136-5.313c-4.6,0-6.322,1.945-6.322,5.313
			v7.559C39.524,62.37,41.246,64.276,45.846,64.276L45.846,64.276z M48.354,58.665c0,1.572-0.751,2.32-2.509,2.32
			c-1.944,0-2.693-0.748-2.693-2.32v-6.92c0-1.609,0.749-2.357,2.693-2.357c1.758,0,2.509,0.748,2.509,2.357V58.665z M60.624,64.276
			c4.527,0,6.174-1.906,6.174-5.311v-7.559c0-3.367-1.646-5.313-6.174-5.313c-4.565,0-6.285,1.945-6.285,5.313v7.559
			C54.339,62.37,56.059,64.276,60.624,64.276L60.624,64.276z M63.168,58.665c0,1.572-0.784,2.32-2.544,2.32
			c-1.907,0-2.656-0.748-2.656-2.32v-6.92c0-1.609,0.749-2.357,2.656-2.357c1.76,0,2.544,0.748,2.544,2.357V58.665z"/>
	</g>
</g>
<path fill-rule="evenodd" clip-rule="evenodd" fill="#F5F6F6" stroke="#E6E6E6" stroke-miterlimit="10" d="M54.738,0.5
	c29.939,0,54.243,24.271,54.243,54.239c0,29.94-24.304,54.241-54.243,54.241C24.771,108.98,0.5,84.68,0.5,54.739
	C0.5,24.771,24.771,0.5,54.738,0.5L54.738,0.5z M54.738,14.686c22.111,0,40.057,17.944,40.057,40.054S76.85,94.793,54.738,94.793
	c-22.107,0-40.052-17.944-40.052-40.054S32.631,14.686,54.738,14.686L54.738,14.686z"/>
<path fill-rule="evenodd" clip-rule="evenodd" fill="#1F9FC1" d="M54.74,1.299c-29.532,0-53.427,23.926-53.427,53.456
	c0,29.499,23.895,53.425,53.427,53.425c29.5,0,53.427-23.926,53.427-53.425C108.167,25.225,84.24,1.299,54.74,1.299L54.74,1.299z
	 M54.74,13.92c22.547,0,40.838,18.288,40.838,40.835S77.287,95.592,54.74,95.592c-22.546,0-40.836-18.29-40.836-40.837
	S32.194,13.92,54.74,13.92L54.74,13.92z"/>
</svg>
