<?xml version="1.0" encoding="utf-8"?>
<!-- Generator: Adobe Illustrator 16.0.0, SVG Export Plug-In . SVG Version: 6.00 Build 0)  -->
<!DOCTYPE svg PUBLIC "-//W3C//DTD SVG 1.1//EN" "http://www.w3.org/Graphics/SVG/1.1/DTD/svg11.dtd">
<svg version="1.1" id="Layer_1" xmlns="http://www.w3.org/2000/svg" xmlns:xlink="http://www.w3.org/1999/xlink" x="0px" y="0px"
	 width="109.481px" height="109.48px" viewBox="0 0 109.481 109.48" enable-background="new 0 0 109.481 109.48"
	 xml:space="preserve">
<g>
	<g>
		<g>
			<path fill="#1F9FC1" d="M65.77,55.024c1.758,0,2.395-0.711,2.395-2.02V51.36c0-1.273-0.637-1.984-2.395-1.984
				c-1.685,0-2.319,0.711-2.319,1.984v1.645C63.45,54.313,64.085,55.024,65.77,55.024L65.77,55.024z M66.257,59.628h1.533
				l4.638-10.066h-1.535L66.257,59.628z M66.556,52.78c0,0.449-0.225,0.711-0.786,0.711c-0.488,0-0.711-0.262-0.711-0.711v-1.123
				c0-0.484,0.223-0.748,0.711-0.748c0.562,0,0.786,0.264,0.786,0.748V52.78z M72.879,59.888c1.719,0,2.393-0.746,2.393-2.057
				v-1.646c0-1.271-0.674-1.982-2.393-1.982c-1.686,0-2.359,0.711-2.359,1.982v1.646C70.52,59.142,71.193,59.888,72.879,59.888
				L72.879,59.888z M73.662,57.606c0,0.449-0.225,0.711-0.783,0.711c-0.527,0-0.75-0.262-0.75-0.711v-1.123
				c0-0.523,0.223-0.748,0.75-0.748c0.559,0,0.783,0.225,0.783,0.748V57.606z"/>
			<path fill="#1F9FC1" d="M33.51,63.361h12.458v-3.292h-8.79v-0.451c0-3.852,8.491-3.178,8.491-8.68v-0.783
				c0-2.957-1.794-4.639-6.884-4.639c-1.646,0-3.666,0.223-4.9,0.559l0.561,3.217c1.047-0.299,2.844-0.484,4.34-0.484
				c2.582,0,3.217,0.412,3.217,1.76v0.336c0,2.43-8.492,2.881-8.492,8.828V63.361z M53.188,63.66c4.788,0,6.473-2.019,6.473-5.536
				v-0.635c0-3.182-1.384-5.09-6.099-5.09h-0.971l0.261-3.295h6.284l0.301-3.254H49.56l-0.86,9.84h4.489
				c1.872,0,2.843,0.6,2.843,2.059v0.523c0,1.498-0.971,2.133-2.843,2.133c-1.608,0-3.516-0.225-4.714-0.486l-0.523,3.217
				C49.261,63.437,51.393,63.66,53.188,63.66L53.188,63.66z"/>
		</g>
	</g>
	<path fill-rule="evenodd" clip-rule="evenodd" fill="#F5F6F6" stroke="#E6E6E6" stroke-miterlimit="10" d="M54.74,0.499
		c29.939,0,54.241,24.272,54.241,54.242c0,29.938-24.302,54.24-54.241,54.24c-29.969,0-54.24-24.303-54.24-54.24
		C0.5,24.771,24.771,0.499,54.74,0.499L54.74,0.499z M54.74,14.687c22.109,0,40.055,17.944,40.055,40.055
		c0,22.109-17.945,40.053-40.055,40.053S14.686,76.851,14.686,54.741C14.686,32.631,32.631,14.687,54.74,14.687L54.74,14.687z"/>
	<path fill-rule="evenodd" clip-rule="evenodd" fill="#1F9FC1" d="M53.927,108.167v-12.59C32.004,95.14,14.311,77.445,13.904,55.522
		H1.313C1.722,84.429,25.053,107.759,53.927,108.167L53.927,108.167z"/>
</g>
</svg>
