<?xml version="1.0" encoding="utf-8"?>
<!-- Generator: Adobe Illustrator 16.0.0, SVG Export Plug-In . SVG Version: 6.00 Build 0)  -->
<!DOCTYPE svg PUBLIC "-//W3C//DTD SVG 1.1//EN" "http://www.w3.org/Graphics/SVG/1.1/DTD/svg11.dtd">
<svg version="1.1" id="Layer_1" xmlns="http://www.w3.org/2000/svg" xmlns:xlink="http://www.w3.org/1999/xlink" x="0px" y="0px"
	 width="109.481px" height="109.48px" viewBox="0 0 109.481 109.48" enable-background="new 0 0 109.481 109.48"
	 xml:space="preserve">
	<g>
		<g>
			<g>
				<path fill="#eee" d="M65.458,55.426c1.758,0,2.395-0.712,2.395-2.022v-1.645c0-1.271-0.637-1.982-2.395-1.982 				c-1.685,0-2.319,0.711-2.319,1.982v1.645C63.139,54.713,63.773,55.426,65.458,55.426L65.458,55.426z M65.945,60.027h1.533 				l4.639-10.063h-1.535L65.945,60.027z M66.244,53.179c0,0.45-0.225,0.714-0.786,0.714c-0.488,0-0.711-0.264-0.711-0.714v-1.121 				c0-0.485,0.223-0.748,0.711-0.748c0.562,0,0.786,0.263,0.786,0.748V53.179z M72.566,60.287c1.721,0,2.393-0.746,2.393-2.055 				v-1.648c0-1.271-0.672-1.982-2.393-1.982c-1.686,0-2.359,0.711-2.359,1.982v1.648C70.207,59.541,70.881,60.287,72.566,60.287 				L72.566,60.287z M73.352,58.006c0,0.449-0.225,0.711-0.785,0.711c-0.525,0-0.75-0.262-0.75-0.711v-1.121 				c0-0.523,0.225-0.75,0.75-0.75c0.561,0,0.785,0.227,0.785,0.75V58.006z"/>
				<path fill="#eee" d="M39.021,64.525c4.789,0,6.509-2.055,6.509-5.535v-0.635c0-3.181-1.421-5.088-6.097-5.088h-1.01 				l0.262-3.293h6.286l0.298-3.293h-9.877l-0.822,9.84h4.451c1.871,0,2.844,0.6,2.844,2.057v0.561c0,1.498-0.973,2.098-2.844,2.098 				c-1.609,0-3.516-0.188-4.678-0.488l-0.523,3.219C35.094,64.303,37.225,64.525,39.021,64.525L39.021,64.525z M54.137,64.525 				c4.527,0,6.174-1.906,6.174-5.313v-7.556c0-3.366-1.646-5.312-6.174-5.312c-4.564,0-6.285,1.945-6.285,5.312v7.556 				C47.852,62.619,49.572,64.525,54.137,64.525L54.137,64.525z M56.679,58.916c0,1.57-0.784,2.32-2.542,2.32 				c-1.909,0-2.657-0.75-2.657-2.32v-6.921c0-1.608,0.748-2.356,2.657-2.356c1.758,0,2.542,0.748,2.542,2.356V58.916z"/>
			</g>
		</g>
		<path fill-rule="evenodd" clip-rule="evenodd" fill="#F5F6F6" stroke="#E6E6E6" stroke-miterlimit="10" d="M54.74,0.5 		c29.938,0,54.241,24.27,54.241,54.238c0,29.939-24.304,54.242-54.241,54.242c-29.969,0-54.24-24.303-54.24-54.242 		C0.5,24.77,24.771,0.5,54.74,0.5L54.74,0.5z  M54.74,14.686c22.109,0,40.055,17.943,40.055,40.053 		c0,22.111-17.945,40.056-40.055,40.056S14.686,76.85,14.686,54.739C14.686,32.629,32.631,14.686,54.74,14.686L54.74,14.686z"/>
		<path fill-rule="evenodd" clip-rule="evenodd" fill="#1F9FC1" d="M53.927,108.166v-12.59 c-22.173-0.438-40.024-18.539-40.024-40.837c0-22.299,17.852-40.398,40.024-40.836V1.314C24.801,1.72,1.282,25.489,1.282,54.739 C1.282,83.99,24.801,107.76,53.927,108.166L53.927,108.166z"/>
	</g>
</svg>
