<?xml version="1.0" encoding="utf-8"?>
<!-- Generator: Adobe Illustrator 16.0.0, SVG Export Plug-In . SVG Version: 6.00 Build 0)  -->
<!DOCTYPE svg PUBLIC "-//W3C//DTD SVG 1.1//EN" "http://www.w3.org/Graphics/SVG/1.1/DTD/svg11.dtd">
<svg version="1.1" id="Layer_1" xmlns="http://www.w3.org/2000/svg" xmlns:xlink="http://www.w3.org/1999/xlink" x="0px" y="0px"
	 width="109.481px" height="109.48px" viewBox="0 0 109.481 109.48" enable-background="new 0 0 109.481 109.48"
	 xml:space="preserve">
	<g>
		<g>
			<g>
				<path fill="#1F9FC1" d="M64.083,55.914c1.758,0,2.395-0.711,2.395-2.021v-1.646c0-1.27-0.637-1.982-2.395-1.982 c-1.683,0-2.319,0.713-2.319,1.982v1.646C61.764,55.203,62.4,55.914,64.083,55.914L64.083,55.914z M64.57,60.518h1.533 l4.639-10.063h-1.533L64.57,60.518z M64.869,53.669c0,0.45-0.223,0.712-0.786,0.712c-0.488,0-0.711-0.262-0.711-0.712v-1.121 c0-0.486,0.223-0.748,0.711-0.748c0.563,0,0.786,0.262,0.786,0.748V53.669z M71.191,60.777c1.721,0,2.393-0.748,2.393-2.057 v-1.646c0-1.271-0.672-1.982-2.393-1.982c-1.684,0-2.356,0.711-2.356,1.982v1.646C68.835,60.029,69.508,60.777,71.191,60.777 L71.191,60.777z M71.977,58.496c0,0.449-0.227,0.709-0.785,0.709c-0.525,0-0.748-0.26-0.748-0.709v-1.123 c0-0.523,0.223-0.75,0.748-0.75c0.559,0,0.785,0.227,0.785,0.75V58.496z"/>
				<path fill="#1F9FC1" d="M46.232,50.21v-3.258H35.195v3.258h7.297l-6.51,14.253h3.705L46.232,50.21z M53.267,64.762 					c4.79,0,6.51-2.021,6.51-5.537v-0.637c0-3.18-1.421-5.087-6.098-5.087h-1.01l0.261-3.291h6.287l0.299-3.258H49.64l-0.824,9.841
					h4.451c1.871,0,2.843,0.6,2.843,2.057v0.523c0,1.496-0.972,2.133-2.843,2.133c-1.608,0-3.516-0.223-4.677-0.486l-0.523,3.219 					C49.341,64.537,51.471,64.762,53.267,64.762L53.267,64.762z"/>
			</g>
		</g>
		<path fill-rule="evenodd" clip-rule="evenodd" fill="#F5F6F6" stroke="#E6E6E6" stroke-miterlimit="10" d="M54.738,0.499 			c29.939,0,54.243,24.273,54.243,54.239c0,29.943-24.304,54.243-54.243,54.243c-29.969,0-54.238-24.3-54.238-54.243
			C0.5,24.772,24.77,0.499,54.738,0.499L54.738,0.499z M54.738,14.687c22.111,0,40.057,17.945,40.057,40.052 			c0,22.111-17.945,40.057-40.057,40.057c-22.107,0-40.053-17.945-40.053-40.057C14.686,32.632,32.631,14.687,54.738,14.687 L54.738,14.687z"/>
		<path fill-rule="evenodd" clip-rule="evenodd" fill="#1F9FC1" d="M53.956,108.167V95.576
			c-22.202-0.438-40.054-18.535-40.054-40.838c0-22.544,18.289-40.837,40.836-40.837c22.299,0,40.4,17.854,40.838,40.058h12.589 C107.76,24.804,83.988,1.282,54.738,1.282c-29.529,0-53.425,23.928-53.425,53.456C1.313,83.99,24.801,107.759,53.956,108.167
			L53.956,108.167z"/>
	</g>
</svg>
