<?xml version="1.0" encoding="utf-8"?>
<!-- Generator: Adobe Illustrator 16.0.0, SVG Export Plug-In . SVG Version: 6.00 Build 0)  -->
<!DOCTYPE svg PUBLIC "-//W3C//DTD SVG 1.1//EN" "http://www.w3.org/Graphics/SVG/1.1/DTD/svg11.dtd">
<svg version="1.1" id="Layer_1" xmlns="http://www.w3.org/2000/svg" xmlns:xlink="http://www.w3.org/1999/xlink" x="0px" y="0px" width="100px" height="100px" viewBox="0 0 100 100" enable-background="new 0 0 100 100" xml:space="preserve">
	<g id="seis">
		<path id="circulo-central-seis" fill-rule="evenodd" clip-rule="evenodd" fill="#5780C1" stroke="#FFFFFF" stroke-width="0.5" stroke-miterlimit="10" d="M50.012,23.024c14.887,0,26.969,12.074,26.969,26.976S64.899,76.979,50.012,76.979C35.1,76.979,23.023,64.901,23.023,50 S35.1,23.024,50.012,23.024L50.012,23.024z"/>
		<path id="ocho-seis" fill="#5780C1" d="M80.162,85.905c-7.342,6.143-16.545,9.957-26.054,10.799l-1.071-12.457 c7.098-0.63,13.651-3.341,19.109-7.921L80.162,85.905L80.162,85.905z"/>
		<path id="siete-seis" fill="#5780C1" d="M96.757,54.091c-0.86,9.527-4.562,18.509-10.672,25.854L76.5,71.98 c4.445-5.353,7.207-12.023,7.859-18.964L96.757,54.091L96.757,54.091z"/>
		<path id="seis-seis" fill="#E6483E" d="M84.359,46.976c-0.652-6.934-3.414-13.604-7.859-18.967l9.586-7.961 c6.11,7.345,9.812,16.333,10.672,25.856L84.359,46.976L84.359,46.976z"/>
		<path id="cinco-seis" fill="#E6483E" d="M72.146,23.666c-5.458-4.576-12.012-7.287-19.109-7.91l1.071-12.46 C63.617,4.13,72.82,7.944,80.162,14.091L72.146,23.666L72.146,23.666z"/>
		<path id="cuatro-seis" fill="#E6483E" d="M19.838,14.091C27.18,7.944,36.361,4.13,45.911,3.296l1.07,12.46 c-7.09,0.615-13.67,3.334-19.127,7.91L19.838,14.091L19.838,14.091z"/>
		<path id="tres-seis" fill="#E6483E" d="M3.243,45.904c0.863-9.523,4.565-18.512,10.697-25.856l9.578,7.961 c-4.484,5.362-7.243,12.033-7.858,18.967L3.243,45.904L3.243,45.904z"/>
		<path id="dos-seis" fill="#E6483E" d="M15.66,53.017c0.615,6.94,3.374,13.611,7.858,18.964l-9.578,7.964 C7.808,72.6,4.106,63.618,3.243,54.091L15.66,53.017L15.66,53.017z"/>
		<path id="uno-seis" fill="#E6483E" d="M27.854,76.326c5.457,4.569,12.037,7.291,19.127,7.921l-1.07,12.457 c-9.55-0.842-18.73-4.656-26.072-10.799L27.854,76.326L27.854,76.326z"/>
	</g>
</svg>
