<?xml version="1.0" encoding="utf-8"?>
<!-- Generator: Adobe Illustrator 16.0.0, SVG Export Plug-In . SVG Version: 6.00 Build 0)  -->
<!DOCTYPE svg PUBLIC "-//W3C//DTD SVG 1.1//EN" "http://www.w3.org/Graphics/SVG/1.1/DTD/svg11.dtd">
<svg version="1.1" id="Layer_1" xmlns="http://www.w3.org/2000/svg" xmlns:xlink="http://www.w3.org/1999/xlink" x="0px" y="0px"
	 width="1119px" height="667.854px" viewBox="0 0 1119 667.854" enable-background="new 0 0 1119 667.854" xml:space="preserve">
<g id="extra">
	<g id="lineas-bg">
		<line fill="none" stroke="#EFEEEE" stroke-dasharray="0" x1="28.692" y1="564.783" x2="1084.692" y2="564.783"/>
		<line fill="none" stroke="#EFEEEE" stroke-dasharray="0" x1="28.692" y1="623.842" x2="1084.692" y2="623.842"/>
		<line fill="none" stroke="#EFEEEE" stroke-dasharray="0" x1="28.692" y1="505.223" x2="1084.692" y2="505.223"/>
		<line fill="none" stroke="#EFEEEE" stroke-dasharray="0" x1="28.692" y1="445.662" x2="1084.692" y2="445.662"/>
		<line fill="none" stroke="#EFEEEE" stroke-dasharray="0" x1="28.692" y1="386.104" x2="1084.692" y2="386.104"/>
		<line fill="none" stroke="#EFEEEE" stroke-dasharray="0" x1="28.692" y1="326.543" x2="1084.692" y2="326.543"/>
		<line fill="none" stroke="#EFEEEE" stroke-dasharray="0" x1="28.692" y1="266.983" x2="1084.692" y2="266.983"/>
		<line fill="none" stroke="#EFEEEE" stroke-dasharray="0" x1="28.692" y1="207.424" x2="1084.692" y2="207.424"/>
		<line fill="none" stroke="#EFEEEE" stroke-dasharray="0" x1="28.692" y1="147.864" x2="1084.692" y2="147.864"/>
		<line fill="none" stroke="#EFEEEE" stroke-dasharray="0" x1="28.692" y1="88.303" x2="1084.692" y2="88.303"/>
		<line fill="none" stroke="#EFEEEE" stroke-dasharray="0" x1="28.692" y1="28.743" x2="1084.692" y2="28.743"/>
	</g>
</g>
<g>
	<g>
		<path id="point-0-0-0" fill="#2278B5" d="M213.061,28.243h204v595.599h-204V28.243z"/>
	</g>
	<g>
		<path id="point-0-0-1" fill="#E76157" d="M458.275,87.803h204v536.039h-204V87.803z"/>
	</g>
	<g>
		<path id="point-0-0-2" fill="#F3A42D" d="M701.939,28.243h204v595.599h-204V28.243z"/>
	</g>
</g>
</svg>
