<?xml version="1.0" encoding="utf-8"?>
<!-- Generator: Adobe Illustrator 16.0.0, SVG Export Plug-In . SVG Version: 6.00 Build 0)  -->
<!DOCTYPE svg PUBLIC "-//W3C//DTD SVG 1.1//EN" "http://www.w3.org/Graphics/SVG/1.1/DTD/svg11.dtd">
<svg version="1.1" id="graphic" xmlns="http://www.w3.org/2000/svg" xmlns:xlink="http://www.w3.org/1999/xlink" x="0px" y="0px"
	 width="1548.692px" height="648.543px" viewBox="-7.692 -12.243 1548.692 648.543"
	 enable-background="new -7.692 -12.243 1548.692 648.543" xml:space="preserve">
<rect x="41.366" y="10" fill="none" width="1466.267" height="595.599"/>
<path display="none" fill="none" stroke="#EEEEEE" stroke-dasharray="0" d="M30,606.099h0.5V10.5H30"/>
<text transform="matrix(1 0 0 1 9.6555 610.0591)" fill="#757575" font-family="'ArialMT'" font-size="18">0%</text>
<line fill="none" stroke="#EEEEEE" stroke-dasharray="0" x1="41.366" y1="546.541" x2="1507.633" y2="546.541"/>
<line fill="none" stroke="#EEEEEE" stroke-dasharray="0" x1="41.366" y1="486.98" x2="1507.633" y2="486.98"/>
<line fill="none" stroke="#EEEEEE" stroke-dasharray="0" x1="41.366" y1="427.419" x2="1507.633" y2="427.419"/>
<line fill="none" stroke="#EEEEEE" stroke-dasharray="0" x1="41.366" y1="367.86" x2="1507.633" y2="367.86"/>
<line fill="none" stroke="#EEEEEE" stroke-dasharray="0" x1="41.366" y1="308.3" x2="1507.633" y2="308.3"/>
<line fill="none" stroke="#EEEEEE" stroke-dasharray="0" x1="41.366" y1="248.74" x2="1507.633" y2="248.74"/>
<line fill="none" stroke="#EEEEEE" stroke-dasharray="0" x1="41.366" y1="189.18" x2="1507.633" y2="189.18"/>
<line fill="none" stroke="#EEEEEE" stroke-dasharray="0" x1="41.366" y1="129.62" x2="1507.633" y2="129.62"/>
<line fill="none" stroke="#EEEEEE" stroke-dasharray="0" x1="41.366" y1="70.06" x2="1507.633" y2="70.06"/>
<line fill="none" stroke="#EEEEEE" stroke-dasharray="0" x1="41.366" y1="10.5" x2="1507.633" y2="10.5"/>
<g>
	<text transform="matrix(1 0 0 1 -7.6921 20.4595)" fill="#757575" font-family="'ArialMT'" font-size="18">100%</text>
</g>
<path id="point-0-0-0" fill="#1F77B4" d="M41.609,10h102.298v595.599H41.609V10z"/>
<path id="point-0-0-1" fill="#E76056" d="M155.031,69.56h102.299v536.039H155.031V69.56z"/>
<path id="point-0-0-2" fill="#F3A32D" d="M268.695,10h102.298v595.599H268.695V10z"/>
<path id="point-0-0-3" fill="#2EBC98" d="M382.359,10h102.298v595.599H382.359V10z"/>
<path id="point-0-0-4" fill="#99C25F" d="M496.023,10h102.298v595.599H496.023V10z"/>
<path id="point-0-0-5" fill="#3E4F5E" d="M609.687,69.56h102.298v536.039H609.687V69.56z"/>
<path id="point-0-0-6" fill="#FCDA59" d="M723.351,69.56h102.298v536.039H723.351V69.56z"/>
<path id="point-0-0-7" fill="#717170" d="M837.015,129.12h102.298v476.479H837.015V129.12z"/>
<path id="point-0-0-8" fill="#36C945" d="M950.679,129.12h102.298v476.479H950.679V129.12z"/>
<path id="point-0-0-9" fill="#E74C3C" d="M1064.343,248.24h102.298v357.359h-102.298V248.24z"/>
<path id="point-0-0-10" fill="#F54789" d="M1178.007,10h102.298v595.599h-102.298V10z"/>
<path id="point-0-0-11" fill="#A2F2F0" d="M1291.671,129.12h102.298v476.479h-102.298V129.12z"/>
<path id="point-0-0-12" fill="#5C4589" d="M1405.336,10h102.297v595.599h-102.297V10z"/>
<rect x="61.091" y="572.318" fill="none" width="63.333" height="19.332"/>
<text class="html-bars" transform="matrix(1 0 0 1 61.0911 589.3569)" fill="#FFFFFF" font-family="'MyriadPro-Regular'" font-size="24">HTML</text>
</svg>
